<?xml version="1.0" standalone="no"?>
<!DOCTYPE svg PUBLIC "-//W3C//DTD SVG 20010904//EN"
 "http://www.w3.org/TR/2001/REC-SVG-20010904/DTD/svg10.dtd">
<svg version="1.0" xmlns="http://www.w3.org/2000/svg"
 width="2667.000000pt" height="1611.000000pt" viewBox="0 0 2667.000000 1611.000000"
 preserveAspectRatio="xMidYMid meet">
<metadata>
Created by potrace 1.16, written by Peter Selinger 2001-2019
</metadata>
<g transform="translate(0.000000,1611.000000) scale(0.100000,-0.100000)"
fill="#000000" stroke="none">
<path d="M3957 9494 c-10 -3 -29 -16 -42 -30 l-24 -24 69 0 c127 0 234 -64
258 -153 19 -70 -21 -143 -97 -176 -68 -29 -194 -59 -303 -72 -127 -15 -198
-1 -246 47 -31 31 -34 38 -28 75 9 56 47 127 106 198 27 33 50 62 50 64 0 2
-31 -11 -69 -30 -80 -40 -151 -119 -201 -224 -50 -107 -34 -185 43 -204 l25
-7 -48 -91 c-62 -119 -110 -250 -151 -414 l-34 -131 -90 -7 c-102 -8 -420 -3
-429 6 -11 10 52 177 114 304 131 271 327 499 543 632 82 52 62 54 -25 3 -248
-146 -497 -354 -647 -540 -287 -357 -433 -846 -393 -1316 6 -75 13 -138 14
-140 6 -5 257 9 268 16 10 6 10 35 0 129 -22 209 2 491 60 712 l10 36 223 6
c122 4 245 11 272 16 28 5 52 7 53 6 2 -2 -2 -54 -10 -117 -15 -127 -16 -583
-1 -663 7 -36 13 -49 24 -46 8 2 53 14 102 26 48 12 89 24 92 27 3 3 -6 88
-19 189 -30 224 -49 450 -44 543 l3 69 80 19 c369 87 767 273 1122 525 102 72
275 214 269 220 -8 8 -122 -62 -218 -133 -254 -190 -584 -343 -958 -443 -67
-18 -271 -61 -289 -61 -10 0 5 138 25 230 23 111 52 195 101 293 l43 87 63 0
c278 0 688 186 737 334 28 85 -20 150 -138 186 -62 19 -230 34 -265 24z"/>
<path d="M5900 8895 c0 -28 -67 -149 -128 -231 -72 -98 -220 -269 -295 -343
l-55 -53 -242 182 c-133 100 -243 180 -245 178 -2 -2 63 -153 144 -336 82
-183 148 -332 146 -332 -2 0 -24 18 -51 40 l-48 39 -32 -27 c-17 -15 -67 -58
-110 -96 -97 -85 -219 -166 -320 -213 l-77 -35 7 -94 c4 -52 5 -94 2 -94 -3 0
-43 28 -88 61 -46 34 -88 64 -95 66 -9 3 -230 -135 -265 -166 -4 -3 15 -89 43
-190 27 -101 48 -185 47 -186 -2 -2 -133 217 -293 485 -159 269 -293 489 -297
489 -5 1 -8 -163 -8 -363 l0 -365 -53 -15 c-105 -30 -315 -78 -447 -101 -107
-18 -137 -20 -145 -10 -5 7 -66 110 -135 229 l-125 217 -6 -113 c-4 -62 -7
-166 -8 -230 -1 -136 12 -123 -136 -133 -49 -3 -116 -8 -147 -12 l-58 -6 6
-56 c10 -109 3 -101 97 -94 45 3 134 13 197 22 l115 16 9 63 c5 34 12 62 15
62 3 0 24 -33 46 -73 l41 -72 54 3 c105 5 366 55 580 109 118 30 225 57 237
60 22 5 23 10 25 145 l3 140 272 -429 c192 -300 302 -463 370 -546 55 -66 99
-112 101 -104 2 8 -8 59 -22 113 -33 130 -197 867 -194 869 2 1 18 12 36 24
l33 23 37 -26 c20 -14 107 -77 192 -140 85 -63 156 -113 158 -111 2 1 -5 99
-14 216 -12 148 -14 214 -7 216 32 11 206 127 279 186 52 42 89 65 97 60 6 -4
113 -76 236 -161 123 -84 230 -156 238 -159 9 -3 -7 37 -38 98 -28 57 -96 202
-150 322 l-98 218 48 -36 c27 -19 53 -35 58 -35 17 0 256 251 352 369 85 105
190 252 220 309 11 21 7 30 -44 98 -30 41 -58 74 -60 74 -3 0 -5 -7 -5 -15z"/>
<path d="M6027 8569 l-69 -81 66 -131 c107 -215 170 -443 183 -664 l6 -102
-95 -133 c-94 -131 -297 -382 -304 -375 -2 2 1 65 6 141 12 161 0 352 -31 513
-19 99 -98 359 -118 392 -7 12 -22 3 -73 -39 -34 -30 -65 -55 -67 -57 -2 -1
13 -46 33 -99 80 -207 126 -454 126 -669 0 -113 -16 -304 -29 -336 -8 -22
-152 -152 -266 -242 -274 -214 -561 -364 -837 -436 -162 -43 -242 -53 -420
-55 -144 -2 -159 -4 -180 -23 -13 -11 -30 -23 -38 -25 -36 -12 97 -20 240 -15
188 8 313 26 486 72 305 80 643 247 897 442 67 52 66 53 19 -67 -91 -235 -235
-457 -421 -649 -44 -47 -81 -86 -81 -88 0 -1 32 14 70 33 55 29 93 61 178 149
202 210 332 429 423 709 29 89 30 91 142 205 120 124 179 191 272 311 l58 75
-7 -65 c-26 -230 -123 -541 -242 -771 -118 -228 -367 -487 -644 -669 -226
-148 -569 -288 -832 -340 -70 -14 -77 -24 -10 -15 376 51 712 161 972 319 199
121 344 248 490 432 213 267 369 604 434 939 72 374 52 721 -62 1075 -36 113
-177 412 -197 417 -5 2 -41 -33 -78 -78z"/>
<path d="M13530 8354 c-8 -2 -36 -6 -62 -9 l-48 -6 0 -327 0 -328 -70 69
c-139 136 -319 184 -527 141 -120 -24 -196 -66 -289 -159 -92 -91 -135 -167
-159 -280 -45 -212 12 -413 157 -557 120 -120 250 -172 428 -172 161 0 283 50
395 161 l65 64 0 -105 0 -106 33 0 c17 0 49 3 70 6 l37 7 0 798 c0 439 -3 800
-7 802 -5 2 -15 2 -23 1z m-460 -590 c127 -29 253 -134 313 -262 30 -63 32
-73 32 -182 0 -112 -1 -117 -36 -190 -44 -91 -90 -146 -165 -195 -88 -59 -160
-78 -275 -72 -81 3 -107 9 -163 35 -85 40 -148 92 -197 166 -128 190 -98 432
72 590 118 109 260 147 419 110z"/>
<path d="M17157 8347 l-67 -9 2 -802 c3 -794 3 -801 23 -800 11 1 41 5 68 9
l47 6 0 805 c0 442 -1 803 -2 803 -2 -1 -33 -6 -71 -12z"/>
<path d="M18890 8353 c-8 -1 -36 -5 -62 -8 l-48 -6 0 -558 c0 -510 2 -563 18
-628 29 -108 69 -180 147 -258 120 -122 240 -169 430 -169 84 0 126 5 180 22
202 62 367 241 406 439 19 99 7 263 -24 346 -73 189 -227 320 -424 362 -204
43 -397 -11 -538 -152 l-65 -65 -2 338 c-3 295 -5 339 -18 337z m589 -588 c35
-9 86 -27 113 -42 70 -38 163 -139 201 -220 31 -65 32 -73 31 -188 0 -103 -3
-127 -23 -170 -57 -126 -171 -229 -293 -266 -57 -18 -87 -21 -163 -17 -81 4
-104 10 -167 40 -291 138 -355 512 -127 741 115 115 270 159 428 122z"/>
<path d="M21285 8355 c-5 -2 -36 -6 -67 -10 l-58 -6 0 -806 0 -805 28 6 c15 3
46 8 70 11 l42 7 0 804 c0 442 -1 804 -2 803 -2 0 -7 -2 -13 -4z"/>
<path d="M16144 8330 c-123 -22 -271 -93 -374 -180 -53 -45 -143 -159 -185
-234 -14 -27 -41 -90 -58 -140 -30 -86 -31 -99 -32 -241 0 -174 12 -228 81
-370 80 -163 206 -291 359 -365 132 -64 187 -75 375 -75 160 0 168 1 260 33
104 36 135 53 227 121 l62 46 3 338 3 337 -309 -2 -308 -3 -19 -50 c-11 -27
-22 -58 -25 -67 -5 -17 12 -18 256 -18 l260 0 -2 -232 -3 -233 -75 -43 c-105
-60 -186 -83 -306 -89 -200 -10 -356 50 -500 192 -131 130 -194 282 -194 475
0 267 139 491 378 610 84 41 170 60 281 60 149 0 273 -40 393 -125 26 -19 52
-35 56 -35 5 0 28 23 52 52 l44 51 -40 34 c-48 42 -199 116 -279 138 -71 20
-304 28 -381 15z"/>
<path d="M7273 8318 l-63 -10 0 -790 0 -790 43 7 c23 3 57 9 75 12 l32 5 0
789 c0 625 -3 789 -12 788 -7 -1 -41 -6 -75 -11z"/>
<path d="M9895 8298 c-3 -7 -11 -38 -18 -68 l-14 -55 213 -3 214 -2 0 -721 0
-721 43 7 c23 3 57 9 75 12 l32 5 0 709 0 709 195 0 195 0 0 70 0 70 -465 0
c-363 0 -467 -3 -470 -12z"/>
<path d="M8843 8192 l-63 -37 0 -132 0 -133 -64 0 -63 0 -20 -67 -20 -68 83
-3 83 -3 3 -382 c4 -364 5 -385 27 -450 42 -127 122 -177 280 -177 131 0 131
0 131 75 l0 63 -92 -1 c-102 -2 -137 9 -170 54 -35 47 -40 100 -45 462 l-5
357 151 0 151 0 0 70 0 70 -150 0 -150 0 -2 170 -3 170 -62 -38z"/>
<path d="M8035 7908 c-83 -11 -159 -52 -232 -123 l-63 -61 0 89 0 90 -37 -7
c-21 -3 -50 -6 -65 -6 l-28 0 0 -575 0 -575 34 0 c18 0 48 3 65 6 l31 7 0 341
c0 187 4 369 9 404 18 122 90 219 199 270 46 22 72 27 132 27 152 -1 244 -81
279 -243 7 -34 11 -189 11 -432 l0 -380 33 0 c17 0 49 3 70 6 l37 7 0 368 c0
205 -5 402 -11 446 -11 83 -43 165 -86 221 -70 92 -226 142 -378 120z"/>
<path d="M11199 7906 c-89 -24 -179 -95 -243 -190 l-26 -39 0 113 0 113 -46
-7 c-26 -3 -57 -6 -70 -6 l-24 0 0 -575 0 -575 33 0 c17 0 48 3 69 6 l36 6 4
307 c4 250 8 320 22 381 49 203 141 305 304 340 41 9 52 16 60 38 6 15 17 44
26 65 l16 37 -57 -1 c-32 0 -79 -6 -104 -13z"/>
<path d="M11750 7909 c-73 -6 -190 -33 -219 -49 -13 -7 -60 -121 -61 -147 0
-7 27 -2 78 17 177 64 322 76 407 33 80 -42 104 -93 105 -230 l0 -93 -43 33
c-168 128 -406 112 -552 -37 -94 -97 -134 -223 -114 -361 17 -119 96 -237 201
-299 63 -37 176 -59 255 -50 72 7 163 47 216 94 l37 32 0 -67 c0 -58 2 -66 18
-62 9 3 41 11 70 17 l53 12 -3 457 c-5 525 -5 528 -86 613 -74 77 -184 103
-362 87z m157 -510 c206 -99 200 -429 -8 -519 -66 -28 -191 -26 -254 5 -57 28
-120 97 -139 152 -58 170 31 340 201 383 54 13 150 3 200 -21z"/>
<path d="M20505 7913 c-62 -5 -155 -23 -211 -40 -51 -16 -51 -16 -72 -83 -12
-36 -22 -71 -22 -77 0 -7 39 3 93 22 173 61 309 70 396 26 74 -38 101 -103
101 -239 l0 -84 -31 27 c-18 14 -53 36 -78 49 -252 127 -551 -22 -602 -300
-52 -278 190 -529 468 -486 81 13 153 45 208 93 l35 31 0 -67 c0 -50 3 -66 13
-62 7 2 38 10 70 17 l57 11 0 392 c0 424 -7 529 -41 606 -24 56 -80 113 -133
135 -51 21 -176 36 -251 29z m118 -507 c51 -21 105 -74 135 -130 21 -42 26
-65 26 -131 1 -130 -51 -217 -158 -266 -52 -23 -165 -25 -228 -3 -151 51 -229
246 -155 390 22 44 106 133 126 134 3 1 29 7 56 15 57 17 147 13 198 -9z"/>
<path d="M14180 7896 c-126 -27 -249 -102 -335 -205 -138 -167 -165 -442 -63
-649 42 -85 159 -205 243 -249 205 -107 476 -88 683 48 l62 41 0 84 c0 46 -2
84 -4 84 -3 0 -44 -27 -93 -60 -250 -168 -503 -166 -671 8 -53 54 -91 108 -81
115 2 2 110 66 239 142 129 76 278 164 330 195 52 31 143 84 202 119 l108 63
-22 39 c-28 50 -111 134 -164 165 -109 65 -291 90 -434 60z m276 -141 c27 -8
71 -31 98 -51 l48 -36 -143 -85 c-79 -47 -242 -144 -363 -216 -234 -139 -236
-140 -236 -67 -1 320 296 547 596 455z"/>
<path d="M17885 7896 c-165 -37 -286 -120 -377 -260 -73 -112 -104 -285 -79
-432 38 -216 205 -399 421 -459 44 -13 99 -18 170 -18 187 0 305 47 430 173
126 126 177 263 167 450 -6 115 -33 205 -85 286 -76 116 -178 197 -302 240
-89 31 -252 41 -345 20z m245 -132 c113 -25 246 -128 298 -230 66 -129 69
-281 9 -407 -47 -100 -125 -177 -226 -226 -74 -35 -79 -36 -192 -36 -114 0
-116 0 -195 39 -102 51 -174 124 -222 223 -29 62 -35 88 -40 161 -8 148 39
264 147 364 120 111 261 149 421 112z"/>
<path d="M9300 7315 l0 -65 290 0 290 0 0 65 0 65 -290 0 -290 0 0 -65z"/>
</g>
</svg>
